#Comment line ignore any data following # character 
#Hierarchical Translation and Rotation (.htr) file 
[Header]	
#Header keywords are followed by a single value 
FileType HTR		#Single word string
DataType HTRS		#Translation followed by rotation and scale data
FileVersion 1		#integer
NumSegments 64		#integer
NumFrames 3		#integer
DataFrameRate 30		#integer, data frame rate in this file
EulerRotationOrder ZYX
CalibrationUnits mm
RotationUnits Degrees
GlobalAxisofGravity Y
BoneLengthAxis Y
ScaleFactor 1.00
[SegmentNames&Hierarchy]
#CHILD	PARENT
Pinger_Root GLOBAL
Pelvis Pinger_Root
L_Hip Pelvis
R_Hip Pelvis
Rear_Leg01 Pelvis
Spine1 Pelvis
L_Leg01 L_Hip
L_Leg02 L_Leg01
L_Leg03 L_Leg02
L_Foot L_Leg03
L_Toe1_01 L_Foot
L_Toe2_01 L_Foot
L_Toe3_01 L_Foot
planeAlignerLeft L_Foot
L_Toe1_02 L_Toe1_01
L_Toe1_03 L_Toe1_02
L_Toe2_02 L_Toe2_01
L_Toe2_03 L_Toe2_02
L_Toe3_02 L_Toe3_01
L_Toe3_03 L_Toe3_02
planeLockWeightLeft planeAlignerLeft
R_Leg01 R_Hip
R_Leg02 R_Leg01
R_Leg03 R_Leg02
R_Foot R_Leg03
planeAlignerRight R_Foot
R_Toe1_01 R_Foot
R_Toe2_01 R_Foot
R_Toe3_01 R_Foot
planeLockWeightRight planeAlignerRight
R_Toe1_02 R_Toe1_01
R_Toe1_03 R_Toe1_02
R_Toe2_02 R_Toe2_01
R_Toe2_03 R_Toe2_02
R_Toe3_02 R_Toe3_01
R_Toe3_03 R_Toe3_02
Rear_Leg02 Rear_Leg01
Rear_Leg03 Rear_Leg02
Rear_Leg04 Rear_Leg03
Rear_Foot Rear_Leg04
planeAlignerCenter Rear_Foot
Rear_Toe1_01 Rear_Foot
Rear_Toe2_01 Rear_Foot
Rear_Toe3_01 Rear_Foot
planeLockWeightCenter planeAlignerCenter
Rear_Toe1_02 Rear_Toe1_01
Rear_Toe1_03 Rear_Toe1_02
Rear_Toe2_02 Rear_Toe2_01
Rear_Toe2_03 Rear_Toe2_02
Rear_Toe3_02 Rear_Toe3_01
Rear_Toe3_03 Rear_Toe3_02
Back_Bone Spine1
Head Spine1
Motor_Bone Back_Bone
Ping_Mechanism Back_Bone
BN_LookIK Head
bottomMouth Head
L_Mouth01 Head
L_mouthFront Head
mouthGun Head
R_Mouth01 Head
R_mouthFront Head
TopMouth Head
weapon_bone Head
[BasePosition]
#SegmentName Tx, Ty, Tz, Rx, Ry, Rz, BoneLength
Pinger_Root 0.000000 0.000000 0.000000 -90.000000 0.000000 0.000000 10.000000 
Pelvis 0.000000 0.000000 0.000000 0.000000 0.000000 0.000000 10.000000 
L_Hip 0.000000 0.000000 0.000000 0.000000 0.000000 0.000000 10.000000 
R_Hip 0.000000 0.000000 0.000000 0.000000 0.000000 0.000000 10.000000 
Rear_Leg01 0.000000 0.000000 0.000000 0.000000 0.000000 0.000000 10.000000 
Spine1 0.000000 0.000000 0.000000 0.000000 0.000000 0.000000 10.000000 
L_Leg01 0.000000 0.000000 0.000000 0.000000 0.000000 0.000000 10.000000 
L_Leg02 0.000000 0.000000 0.000000 0.000000 0.000000 0.000000 10.000000 
L_Leg03 0.000000 0.000000 0.000000 0.000000 0.000000 0.000000 10.000000 
L_Foot 0.000000 0.000000 0.000000 0.000000 0.000000 0.000000 10.000000 
L_Toe1_01 0.000000 0.000000 0.000000 0.000000 0.000000 0.000000 10.000000 
L_Toe2_01 0.000000 0.000000 0.000000 0.000000 0.000000 0.000000 10.000000 
L_Toe3_01 0.000000 0.000000 0.000000 0.000000 0.000000 0.000000 10.000000 
planeAlignerLeft 0.000000 0.000000 0.000000 0.000000 0.000000 0.000000 10.000000 
L_Toe1_02 0.000000 0.000000 0.000000 0.000000 0.000000 0.000000 10.000000 
L_Toe1_03 0.000000 0.000000 0.000000 0.000000 0.000000 0.000000 10.000000 
L_Toe2_02 0.000000 0.000000 0.000000 0.000000 0.000000 0.000000 10.000000 
L_Toe2_03 0.000000 0.000000 0.000000 0.000000 0.000000 0.000000 10.000000 
L_Toe3_02 0.000000 0.000000 0.000000 0.000000 0.000000 0.000000 10.000000 
L_Toe3_03 0.000000 0.000000 0.000000 0.000000 0.000000 0.000000 10.000000 
planeLockWeightLeft 0.000000 0.000000 0.000000 0.000000 0.000000 0.000000 10.000000 
R_Leg01 0.000000 0.000000 0.000000 0.000000 0.000000 0.000000 10.000000 
R_Leg02 0.000000 0.000000 0.000000 0.000000 0.000000 0.000000 10.000000 
R_Leg03 0.000000 0.000000 0.000000 0.000000 0.000000 0.000000 10.000000 
R_Foot 0.000000 0.000000 0.000000 0.000000 0.000000 0.000000 10.000000 
planeAlignerRight 0.000000 0.000000 0.000000 0.000000 0.000000 0.000000 10.000000 
R_Toe1_01 0.000000 0.000000 0.000000 0.000000 0.000000 0.000000 10.000000 
R_Toe2_01 0.000000 0.000000 0.000000 0.000000 0.000000 0.000000 10.000000 
R_Toe3_01 0.000000 0.000000 0.000000 0.000000 0.000000 0.000000 10.000000 
planeLockWeightRight 0.000000 0.000000 0.000000 0.000000 0.000000 0.000000 10.000000 
R_Toe1_02 0.000000 0.000000 0.000000 0.000000 0.000000 0.000000 10.000000 
R_Toe1_03 0.000000 0.000000 0.000000 0.000000 0.000000 0.000000 10.000000 
R_Toe2_02 0.000000 0.000000 0.000000 0.000000 0.000000 0.000000 10.000000 
R_Toe2_03 0.000000 0.000000 0.000000 0.000000 0.000000 0.000000 10.000000 
R_Toe3_02 0.000000 0.000000 0.000000 0.000000 0.000000 0.000000 10.000000 
R_Toe3_03 0.000000 0.000000 0.000000 0.000000 0.000000 0.000000 10.000000 
Rear_Leg02 0.000000 0.000000 0.000000 0.000000 0.000000 0.000000 10.000000 
Rear_Leg03 0.000000 0.000000 0.000000 0.000000 0.000000 0.000000 10.000000 
Rear_Leg04 0.000000 0.000000 0.000000 0.000000 0.000000 0.000000 10.000000 
Rear_Foot 0.000000 0.000000 0.000000 0.000000 0.000000 0.000000 10.000000 
planeAlignerCenter 0.000000 0.000000 0.000000 0.000000 0.000000 0.000000 10.000000 
Rear_Toe1_01 0.000000 0.000000 0.000000 0.000000 0.000000 0.000000 10.000000 
Rear_Toe2_01 0.000000 0.000000 0.000000 0.000000 0.000000 0.000000 10.000000 
Rear_Toe3_01 0.000000 0.000000 0.000000 0.000000 0.000000 0.000000 10.000000 
planeLockWeightCenter 0.000000 0.000000 0.000000 0.000000 0.000000 0.000000 10.000000 
Rear_Toe1_02 0.000000 0.000000 0.000000 0.000000 0.000000 0.000000 10.000000 
Rear_Toe1_03 0.000000 0.000000 0.000000 0.000000 0.000000 0.000000 10.000000 
Rear_Toe2_02 0.000000 0.000000 0.000000 0.000000 0.000000 0.000000 10.000000 
Rear_Toe2_03 0.000000 0.000000 0.000000 0.000000 0.000000 0.000000 10.000000 
Rear_Toe3_02 0.000000 0.000000 0.000000 0.000000 0.000000 0.000000 10.000000 
Rear_Toe3_03 0.000000 0.000000 0.000000 0.000000 0.000000 0.000000 10.000000 
Back_Bone 0.000000 0.000000 0.000000 0.000000 0.000000 0.000000 10.000000 
Head 0.000000 0.000000 0.000000 0.000000 0.000000 0.000000 10.000000 
Motor_Bone 0.000000 0.000000 0.000000 0.000000 0.000000 0.000000 10.000000 
Ping_Mechanism 0.000000 0.000000 0.000000 0.000000 0.000000 0.000000 10.000000 
BN_LookIK 0.000000 0.000000 0.000000 0.000000 0.000000 0.000000 10.000000 
bottomMouth 0.000000 0.000000 0.000000 0.000000 0.000000 0.000000 10.000000 
L_Mouth01 0.000000 0.000000 0.000000 0.000000 0.000000 0.000000 10.000000 
L_mouthFront 0.000000 0.000000 0.000000 0.000000 0.000000 0.000000 10.000000 
mouthGun 0.000000 0.000000 0.000000 0.000000 0.000000 0.000000 10.000000 
R_Mouth01 0.000000 0.000000 0.000000 0.000000 0.000000 0.000000 10.000000 
R_mouthFront 0.000000 0.000000 0.000000 0.000000 0.000000 0.000000 10.000000 
TopMouth 0.000000 0.000000 0.000000 0.000000 0.000000 0.000000 10.000000 
weapon_bone 0.000000 0.000000 0.000000 0.000000 0.000000 0.000000 10.000000 
#Beginning of Data. Separated by tabs
#Fr	Tx	Ty	Tz	Rx	Ry	Rz	SF
[Pinger_Root]
33 0.000000 0.000000 0.000000 -0.000075 -0.000000 -0.000020 0.000000
34 0.000000 0.000000 0.000000 -0.000075 -0.000000 -0.000020 0.000000
35 0.000000 0.000000 0.000000 -0.000075 -0.000000 -0.000020 0.000000
[Pelvis]
33 2343.916748 147.697586 3157.984375 -91.512093 -80.626587 84.893082 3935.559082
34 2355.479004 151.137054 3165.284668 -91.834084 -79.672752 85.104744 3948.436523
35 2367.041504 154.576553 3172.584717 -95.421417 -78.749298 88.576645 3961.322266
[L_Hip]
33 5.766392 125.831482 872.656799 160.158691 -45.484905 122.312202 881.701050
34 5.766392 125.831482 872.656799 160.158691 -45.484905 122.312202 881.701050
35 5.766392 125.831482 872.656799 160.158691 -45.484894 122.312187 881.701050
[R_Hip]
33 5.765438 125.836372 -872.654907 38.087841 49.812687 125.703735 881.699829
34 5.765438 125.836372 -872.654907 38.087830 49.812672 125.703735 881.699829
35 5.765438 125.836372 -872.654907 38.087830 49.812672 125.703735 881.699829
[Rear_Leg01]
33 -192.298416 -925.602966 -0.001907 -179.332062 -12.104985 -156.176147 945.367432
34 -192.298416 -925.602966 -0.001907 -179.451447 -12.226129 -157.349884 945.367432
35 -192.298416 -925.602966 -0.001907 -179.886948 -12.922082 -158.364075 945.367432
[Spine1]
33 290.604584 5.007505 0.000477 -19.131990 31.792912 -3.602947 290.647736
34 290.604584 5.007505 0.000477 -19.249311 32.352421 -3.423742 290.647736
35 290.604584 5.007505 0.000477 -19.365269 32.912235 -3.244773 290.647736
[L_Leg01]
33 761.932007 -0.002384 -0.069261 30.598913 -17.332455 20.125202 761.932068
34 761.932007 -0.002384 -0.069261 29.856770 -16.877350 20.853458 761.932068
35 761.932007 -0.002384 -0.069261 29.729956 -16.379612 22.244358 761.932068
[L_Leg02]
33 1441.140503 -0.000954 -0.000715 2.027266 -0.168723 -123.589569 1441.140503
34 1441.140503 -0.000954 -0.000715 1.980366 -0.168617 -123.134804 1441.140503
35 1441.140503 -0.000954 -0.000715 1.972554 -0.168566 -123.058907 1441.140503
[L_Leg03]
33 1686.963989 -0.000715 -0.000954 -0.027822 0.010929 117.521599 1686.963989
34 1686.963989 -0.000715 -0.000954 -0.027467 0.010292 117.387962 1686.963989
35 1686.963989 -0.000715 -0.000954 -0.027470 0.010284 117.355522 1686.963989
[L_Foot]
33 3041.570068 -30.715107 11.297464 -21.078220 19.502426 20.427851 3041.746094
34 3041.570068 -30.715107 11.297464 -21.162889 19.222652 20.267164 3041.746094
35 3041.570068 -30.715107 11.297464 -21.246580 18.942652 20.107180 3041.746094
[L_Toe1_01]
33 -188.216690 -224.732346 -21.137953 93.601631 -6.827956 -170.665436 293.899567
34 -188.216690 -224.732346 -21.137953 93.601471 -6.828460 -170.661926 293.899567
35 -188.216690 -224.732346 -21.137953 93.601295 -6.828964 -170.658401 293.899567
[L_Toe2_01]
33 200.746536 -219.926590 148.838394 -89.591736 -25.983664 -53.945675 332.896027
34 200.746536 -219.926590 148.838394 -89.590866 -25.983616 -53.947063 332.896027
35 200.746536 -219.926590 148.838394 -89.589981 -25.983561 -53.948448 332.896027
[L_Toe3_01]
33 188.832520 -219.859131 -191.078659 -99.992989 13.558418 -69.116577 347.140900
34 188.832520 -219.859131 -191.078659 -99.993431 13.557136 -69.119751 347.140900
35 188.832520 -219.859131 -191.078659 -99.993874 13.555854 -69.122932 347.140900
[planeAlignerLeft]
33 0.812531 -811.448792 -0.314951 0.000000 -90.000000 -90.001900 811.449280
34 0.812531 -811.448792 -0.314951 0.000000 -90.000000 -90.001900 811.449280
35 0.812531 -811.448792 -0.314951 0.000000 -90.000000 -90.001900 811.449280
[L_Toe1_02]
33 413.761139 0.000477 0.000000 0.001384 -25.973799 0.001384 413.761139
34 413.761139 0.000477 0.000000 0.001384 -25.971058 0.001384 413.761139
35 413.761139 0.000477 0.000000 0.001384 -25.968309 0.001384 413.761139
[L_Toe1_03]
33 464.317322 0.000358 -0.000089 0.003581 51.733875 0.003581 464.317322
34 464.317322 0.000358 -0.000089 0.003580 51.729294 0.003580 464.317322
35 464.317322 0.000358 -0.000089 0.003580 51.724728 0.003580 464.317322
[L_Toe2_02]
33 342.235809 -0.000477 0.000238 0.001188 -71.901169 0.001188 342.235809
34 342.235809 -0.000477 0.000238 0.001188 -71.863564 0.001188 342.235809
35 342.235809 -0.000477 0.000238 0.001188 -71.859848 0.001188 342.235809
[L_Toe2_03]
33 420.210846 -0.000715 0.000000 0.022752 84.086327 0.022752 420.210846
34 420.210846 -0.000715 0.000000 0.022744 84.084343 0.022744 420.210846
35 420.210846 -0.000715 0.000000 0.022737 84.082321 0.022737 420.210846
[L_Toe3_02]
33 329.270111 0.000954 0.000000 0.001178 -80.025711 0.001178 329.270111
34 329.270111 0.000954 0.000000 0.001178 -80.020248 0.001178 329.270111
35 329.270111 0.000954 0.000000 0.001178 -80.014656 0.001178 329.270111
[L_Toe3_03]
33 439.137451 -0.001907 0.000954 -179.994690 80.668869 -179.991180 439.137451
34 439.137451 -0.001907 0.000954 -179.994659 80.724602 -179.991135 439.137451
35 439.137451 -0.001907 0.000954 -179.994659 80.724602 -179.991135 439.137451
[planeLockWeightLeft]
33 -0.000954 0.000238 -0.000305 -0.011826 -0.004376 0.005620 0.001029
34 -0.000954 0.000238 -0.000305 -0.011826 -0.004376 0.005620 0.001029
35 -0.000954 0.000238 -0.000305 -0.011826 -0.004376 0.005620 0.001029
[R_Leg01]
33 761.455627 -0.001907 -0.000358 89.648300 -35.695568 29.182529 761.455688
34 761.455627 -0.001907 -0.000358 90.262497 -36.774448 28.563686 761.455688
35 761.455627 -0.001907 -0.000358 91.231316 -37.714645 28.591394 761.455688
[R_Leg02]
33 1441.140625 0.000000 -0.000238 -3.563214 -1.607463 166.407593 1441.140625
34 1441.140625 0.000000 -0.000238 -3.565367 -1.610583 166.168442 1441.140625
35 1441.140625 0.000000 -0.000238 -3.559884 -1.606991 166.562027 1441.140625
[R_Leg03]
33 1686.963989 0.000954 0.001431 0.115247 -0.072136 142.277802 1686.963989
34 1686.963989 0.000954 0.001431 0.115248 -0.072136 142.277420 1686.963989
35 1686.963989 0.000954 0.001431 0.115248 -0.072136 142.277039 1686.963989
[R_Foot]
33 3041.560059 -30.531288 -11.204481 31.953234 -62.141712 64.585846 3041.734131
34 3041.560059 -30.531288 -11.204481 31.546995 -62.174324 64.885635 3041.734131
35 3041.560059 -30.531288 -11.204481 30.525633 -62.341301 65.407364 3041.734131
[planeAlignerRight]
33 -0.635147 -812.270569 -0.364304 0.000000 -89.960434 -90.005180 812.270874
34 -0.635147 -812.270569 -0.364304 0.000000 -89.960434 -90.005180 812.270874
35 -0.635147 -812.270569 -0.364304 0.000000 -89.960434 -90.005180 812.270874
[R_Toe1_01]
33 -188.383347 -224.864899 21.052242 76.004044 11.269730 -179.297745 294.101532
34 -188.383347 -224.864899 21.052242 76.003021 11.305143 -179.290665 294.101532
35 -188.383347 -224.864899 21.052242 76.001999 11.340558 -179.283569 294.101532
[R_Toe2_01]
33 200.637817 -220.002121 -148.787384 -94.802238 46.787106 -55.700089 332.857574
34 200.637817 -220.002121 -148.787384 -94.817055 46.817261 -55.704170 332.857574
35 200.637817 -220.002121 -148.787384 -94.831879 46.847420 -55.708267 332.857574
[R_Toe3_01]
33 188.606735 -220.092957 191.126343 -77.243645 0.977955 -59.166092 347.192566
34 188.606735 -220.092957 191.126343 -77.271622 1.159217 -59.088512 347.192566
35 188.606735 -220.092957 191.126343 -77.271271 1.158134 -59.089096 347.192566
[planeLockWeightRight]
33 -0.000477 0.000000 0.000000 -0.011823 -0.004379 -0.000027 0.000477
34 -0.000477 0.000000 0.000000 -0.011823 -0.004379 -0.000027 0.000477
35 -0.000477 0.000000 0.000000 -0.011823 -0.004379 -0.000027 0.000477
[R_Toe1_02]
33 413.762085 0.000477 -0.000119 0.001388 -25.485954 0.001388 413.762085
34 413.762085 0.000477 -0.000119 0.001388 -25.498953 0.001388 413.762085
35 413.762085 0.000477 -0.000119 0.001388 -25.511946 0.001388 413.762085
[R_Toe1_03]
33 464.317810 0.000000 0.001088 0.004970 62.681637 0.004970 464.317810
34 464.317810 0.000000 0.001088 0.004930 62.455795 0.004930 464.317810
35 464.317810 0.000000 0.001088 0.004931 62.463879 0.004931 464.317810
[R_Toe2_02]
33 342.234741 -0.000954 0.000238 0.001209 -62.249737 0.001209 342.234741
34 342.234741 -0.000954 0.000238 0.001209 -62.030167 0.001209 342.234741
35 342.234741 -0.000954 0.000238 0.001209 -62.038261 0.001209 342.234741
[R_Toe2_03]
33 420.210846 0.000715 -0.000268 -0.004382 64.345024 -0.000796 420.210846
34 420.210846 0.000715 -0.000268 -0.004365 64.172813 -0.000778 420.210846
35 420.210846 0.000715 -0.000268 -0.004349 64.000603 -0.000761 420.210846
[R_Toe3_02]
33 329.270355 -0.000477 -0.000954 0.001176 -83.219765 0.001176 329.270355
34 329.270355 -0.000477 -0.000954 0.001176 -83.256195 0.001176 329.270355
35 329.270355 -0.000477 -0.000954 0.001176 -83.292618 0.001176 329.270355
[R_Toe3_03]
33 439.137939 0.000238 0.001431 -179.999237 63.977276 -179.995651 439.137939
34 439.137939 0.000238 0.001431 -179.999237 63.940857 -179.995667 439.137939
35 439.137939 0.000238 0.001431 -179.999252 63.904427 -179.995667 439.137939
[Rear_Leg02]
33 1162.777710 -0.029802 0.005960 2.622910 -1.333966 -176.436203 1162.777710
34 1162.777710 -0.029802 0.005960 2.598244 -1.385904 -175.292221 1162.777710
35 1162.777710 -0.029802 0.005960 2.571120 -1.433102 -174.163452 1162.777710
[Rear_Leg03]
33 607.192505 -0.013351 -0.073195 0.009985 -0.006037 78.671272 607.192505
34 607.192505 -0.013351 -0.073195 0.009993 -0.006024 78.522682 607.192505
35 607.192505 -0.013351 -0.073195 0.010002 -0.006010 78.360008 607.192505
[Rear_Leg04]
33 995.874512 -0.020504 -0.011921 -0.044003 -0.015124 96.221176 995.874573
34 995.874512 -0.020504 -0.011921 -0.043896 -0.015435 95.412102 995.874573
35 995.874512 -0.020504 -0.011921 -0.043785 -0.015744 94.603004 995.874573
[Rear_Foot]
33 3096.176270 -0.067472 -0.041425 -169.809402 78.009781 32.987762 3096.176270
34 3096.176270 -0.067472 -0.041425 -169.847809 77.903038 32.577911 3096.176270
35 3096.176270 -0.067472 -0.041425 -169.882278 77.796303 32.171955 3096.176270
[planeAlignerCenter]
33 0.350077 0.966311 -838.790894 0.000009 0.000003 -179.999985 838.791565
34 0.350077 0.966311 -838.790894 0.000009 0.000003 -179.999985 838.791565
35 0.350077 0.966311 -838.790894 0.000009 0.000003 -179.999985 838.791565
[Rear_Toe1_01]
33 0.653352 83.966492 -371.173737 0.293819 41.912247 90.408592 380.553192
34 0.653352 83.966492 -371.173737 0.293830 41.912182 90.408615 380.553192
35 0.653352 83.966492 -371.173737 0.293839 41.912140 90.408646 380.553192
[Rear_Toe2_01]
33 178.200760 -294.826019 -362.060547 -7.197403 34.405563 -66.271500 499.765686
34 178.200760 -294.826019 -362.060547 -7.197442 34.405533 -66.271507 499.765686
35 178.200760 -294.826019 -362.060547 -7.197475 34.405514 -66.271515 499.765686
[Rear_Toe3_01]
33 -153.359680 -308.780914 -362.060852 3.289662 33.516232 -112.541298 499.952881
34 -153.359680 -308.780914 -362.060852 3.289669 33.516171 -112.541321 499.952881
35 -153.359680 -308.780914 -362.060852 3.289674 33.516113 -112.541321 499.952881
[planeLockWeightCenter]
33 -0.000062 0.000238 0.000000 -0.011814 -0.004373 -0.000015 0.000246
34 -0.000062 0.000238 0.000000 -0.011814 -0.004373 -0.000015 0.000246
35 -0.000062 0.000238 0.000000 -0.011814 -0.004373 -0.000015 0.000246
[Rear_Toe1_02]
33 379.707825 0.194073 0.000477 -0.000242 -31.678036 0.006934 379.707855
34 379.707825 0.194073 0.000477 -0.000242 -31.678072 0.006934 379.707855
35 379.707825 0.194073 0.000477 -0.000242 -31.678104 0.006934 379.707855
[Rear_Toe1_03]
33 500.129700 0.165701 0.000119 -0.000103 51.906612 0.007296 500.129761
34 500.129700 0.165701 0.000119 -0.000103 51.906734 0.007296 500.129761
35 500.129700 0.165701 0.000119 -0.000103 51.906860 0.007296 500.129761
[Rear_Toe2_02]
33 340.494507 0.000238 -0.000954 0.001192 -69.856056 0.001192 340.494507
34 340.494507 0.000238 -0.000954 0.001192 -69.856071 0.001192 340.494507
35 340.494507 0.000238 -0.000954 0.001192 -69.856125 0.001192 340.494507
[Rear_Toe2_03]
33 433.103577 0.000000 0.000238 0.006696 69.811821 0.006696 433.103546
34 433.103577 0.000000 0.000238 0.006696 69.811867 0.006696 433.103546
35 433.103577 0.000000 0.000238 0.006696 69.811928 0.006696 433.103546
[Rear_Toe3_02]
33 340.494141 -0.000358 -0.000477 0.008288 -67.276184 -0.009461 340.494171
34 340.494141 -0.000358 -0.000477 0.008288 -67.276245 -0.009461 340.494171
35 340.494141 -0.000358 -0.000477 0.008288 -67.276268 -0.009461 340.494171
[Rear_Toe3_03]
33 433.103577 0.001431 -0.000238 -0.000972 65.958984 -0.004547 433.103546
34 433.103577 0.001431 -0.000238 -0.000972 65.958984 -0.004547 433.103546
35 433.103577 0.001431 -0.000238 -0.000972 65.958984 -0.004547 433.103546
[Back_Bone]
33 1312.175781 -701.934692 0.000954 0.000023 -0.000007 -85.606667 1488.125488
34 1312.175781 -701.934692 0.000954 0.000023 -0.000007 -85.606667 1488.125488
35 1312.175781 -701.934692 0.000954 0.000023 -0.000007 -85.606667 1488.125488
[Head]
33 1406.159424 809.709290 0.001431 0.001390 -0.784881 18.169430 1622.625488
34 1406.159424 809.709290 0.001431 -0.000544 0.046897 18.885592 1622.625488
35 1406.159424 809.709290 0.001431 0.002709 0.693288 19.056442 1622.625488
[Motor_Bone]
33 1158.364380 -417.834747 0.000477 -9.917056 -4.582453 -101.784897 1231.419434
34 1158.364380 -417.834747 0.000477 -10.287119 -3.918848 -101.931641 1231.419434
35 1158.364380 -417.834747 0.000477 -10.079403 -2.205810 -102.052185 1231.419434
[Ping_Mechanism]
33 1233.717041 -433.271179 -8.506927 0.000103 -0.000053 82.120995 1307.613892
34 1233.686890 -433.084686 -8.579000 0.000103 -0.000053 82.120995 1307.524048
35 1233.656860 -432.898254 -8.651073 0.000103 -0.000053 82.120995 1307.434570
[BN_LookIK]
33 193.241119 1380.371704 -0.002861 0.000000 89.965736 -31.038179 1393.832153
34 193.241119 1380.371704 -0.002861 0.000000 89.965736 -31.038179 1393.832153
35 193.241119 1380.371704 -0.002861 0.000000 89.965736 -31.038179 1393.832153
[bottomMouth]
33 -435.092926 615.759399 -0.000954 -0.000022 0.000016 73.527184 753.966492
34 -435.092926 615.759399 -0.000954 -0.000022 0.000016 73.527184 753.966492
35 -435.092926 615.759399 -0.000954 -0.000022 0.000016 73.527184 753.966492
[L_Mouth01]
33 554.440979 7.658243 838.222046 150.204178 23.759130 109.605339 1005.027161
34 554.440979 7.658243 838.222046 150.204178 23.759130 109.605339 1005.027161
35 554.440979 7.658243 838.222046 150.204178 23.759130 109.605339 1005.027161
[L_mouthFront]
33 551.629089 934.514771 339.150421 0.000081 2.804060 79.119301 1136.941284
34 551.629089 934.514771 339.150421 0.000081 2.804060 79.119301 1136.941284
35 551.629089 934.514771 339.150421 0.000081 2.804060 79.119301 1136.941284
[mouthGun]
33 55.332661 1627.420898 0.000000 0.000023 0.000009 -11.038128 1628.361328
34 55.332661 1627.420898 0.000000 0.000023 0.000009 -11.038128 1628.361328
35 55.332661 1627.420898 0.000000 0.000023 0.000009 -11.038128 1628.361328
[R_Mouth01]
33 554.442383 7.659197 -838.223938 29.795891 -23.759109 109.605331 1005.029541
34 554.442383 7.659197 -838.223938 29.795891 -23.759109 109.605331 1005.029541
35 554.442383 7.659197 -838.223938 29.795891 -23.759109 109.605331 1005.029541
[R_mouthFront]
33 551.629089 934.514282 -339.151367 0.000029 -2.803930 79.119133 1136.941162
34 551.629089 934.514282 -339.151367 0.000029 -2.803930 79.119133 1136.941162
35 551.629089 934.514282 -339.151367 0.000029 -2.803930 79.119133 1136.941162
[TopMouth]
33 461.269867 -56.106091 -0.008583 -0.000059 -0.000268 92.025169 464.669525
34 461.269867 -56.106091 -0.008583 -0.000059 -0.000268 92.025169 464.669525
35 461.269867 -56.106091 -0.008583 -0.000059 -0.000268 92.025169 464.669525
[weapon_bone]
33 -987.239868 1448.372803 0.001431 0.000000 89.965736 -31.038221 1752.833740
34 -987.239868 1448.372803 0.001431 0.000000 89.965736 -31.038221 1752.833740
35 -987.239868 1448.372803 0.001431 0.000000 89.965736 -31.038221 1752.833740
